<svg xmlns="http://www.w3.org/2000/svg" viewBox="0 0 144.5 170.25"><defs><style>.cls-1{fill:#f4f4f4;}</style></defs><g id="レイヤー_2" data-name="レイヤー 2"><g id="レイヤー_1-2" data-name="レイヤー 1"><path class="cls-1" d="M144,2h.5V0H0V2H.25C10.5,2,13.5,4.75,13.5,16V154.25c0,11.25-3,14-13.25,14H0v2H144.5v-2H144c-10.25,0-13.25-2.75-13.25-14V16C130.75,4.75,133.75,2,144,2ZM107,45c0,29-8.5,42.25-35,42.25H34.75V2.5H72C99.75,2.5,107,18.25,107,45Zm2.5,36v73.3c0,.87,0,1.68-.06,2.45q-.94-1.92-1.83-4.2l-24.33-63A63.44,63.44,0,0,0,109.5,81Zm-33.14,87.3H48c-10.25,0-13.25-2.75-13.25-14V90H62l24.9,63.75c1.5,3.75,2,6,2,8,0,3.5-2,6.5-8.25,6.5Z"/></g></g></svg>